<?xml version="1.0" encoding="UTF-8"?>
<svg width="185px" height="60px" viewBox="0 0 185 60" version="1.1" xmlns="http://www.w3.org/2000/svg" xmlns:xlink="http://www.w3.org/1999/xlink">
    <!-- Generator: Sketch 46.2 (44496) - http://www.bohemiancoding.com/sketch -->
    <title>appStore</title>
    <desc>Created with Sketch.</desc>
    <defs></defs>
    <g id="Main" stroke="none" stroke-width="1" fill="none" fill-rule="evenodd">
        <g id="Download" transform="translate(-68.000000, -478.000000)" fill-rule="nonzero">
            <g id="appStore" transform="translate(68.000000, 478.000000)">
                <path d="M185,53.9855528 C185,57.3084171 182.618407,60 179.67268,60 L5.33426717,60 C2.38992955,60 0,57.3084171 0,53.9855528 L0,6.02229899 C0,2.70100503 2.38992955,0 5.33426717,0 L179.671291,0 C182.618407,0 184.998611,2.70100503 184.998611,6.02229899 L185,53.9855528 L185,53.9855528 Z" id="Shape" fill="#000000"></path>
                <g id="Group" transform="translate(19.473684, 10.578947)" fill="#FFFFFF">
                    <path d="M23.8526316,18.1368421 C23.8144737,13.8960526 27.325,11.8328947 27.4855263,11.7368421 C25.4973684,8.83815789 22.4157895,8.44210526 21.3328947,8.41052632 C18.7447368,8.13815789 16.2342105,9.95921053 14.9157895,9.95921053 C13.5710526,9.95921053 11.5407895,8.43684211 9.35263158,8.48157895 C6.53684211,8.525 3.90263158,10.1552632 2.45789474,12.6868421 C-0.523684211,17.8486842 1.7,25.4342105 4.55657895,29.6065789 C5.98552632,31.65 7.65526316,33.9315789 9.84078947,33.8513158 C11.9789474,33.7631579 12.7776316,32.4881579 15.3578947,32.4881579 C17.9144737,32.4881579 18.6644737,33.8513158 20.8934211,33.8 C23.1881579,33.7631579 24.6328947,31.7473684 26.0118421,29.6855263 C27.6631579,27.3434211 28.3263158,25.0368421 28.3526316,24.9184211 C28.2986842,24.9 23.8960526,23.2197368 23.8526316,18.1368421 Z" id="Shape"></path>
                    <path d="M19.6421053,5.66578947 C20.7921053,4.22763158 21.5789474,2.27105263 21.3605263,0.285526316 C19.6960526,0.359210526 17.6144737,1.43684211 16.4157895,2.84342105 C15.3552632,4.08289474 14.4078947,6.11447368 14.6526316,8.025 C16.5223684,8.16447368 18.4421053,7.08157895 19.6421053,5.66578947 Z" id="Shape"></path>
                </g>
                <g id="Group" transform="translate(58.947368, 26.368421)" fill="#FFFFFF">
                    <path d="M15.3223684,17.7684211 L12.3342105,17.7684211 L10.6973684,12.625 L5.00789474,12.625 L3.44868421,17.7684211 L0.539473684,17.7684211 L6.17631579,0.257894737 L9.65789474,0.257894737 L15.3223684,17.7684211 Z M10.2039474,10.4671053 L8.72368421,5.89473684 C8.56710526,5.42763158 8.27368421,4.32763158 7.84078947,2.59605263 L7.78815789,2.59605263 C7.61578947,3.34078947 7.33815789,4.44078947 6.95657895,5.89473684 L5.50263158,10.4671053 L10.2039474,10.4671053 L10.2039474,10.4671053 Z" id="Shape"></path>
                    <path d="M29.8184211,11.3 C29.8184211,13.4473684 29.2381579,15.1447368 28.0776316,16.3907895 C27.0381579,17.5 25.7473684,18.0539474 24.2065789,18.0539474 C22.5434211,18.0539474 21.3486842,17.4565789 20.6210526,16.2618421 L20.5684211,16.2618421 L20.5684211,22.9131579 L17.7631579,22.9131579 L17.7631579,9.29868421 C17.7631579,7.94868421 17.7276316,6.56315789 17.6592105,5.14210526 L20.1263158,5.14210526 L20.2828947,7.14342105 L20.3355263,7.14342105 C21.2710526,5.63552632 22.6907895,4.88289474 24.5960526,4.88289474 C26.0855263,4.88289474 27.3289474,5.47105263 28.3236842,6.64868421 C29.3210526,7.82763158 29.8184211,9.37763158 29.8184211,11.3 Z M26.9605263,11.4026316 C26.9605263,10.1736842 26.6842105,9.16052632 26.1289474,8.36315789 C25.5223684,7.53157895 24.7078947,7.11578947 23.6868421,7.11578947 C22.9947368,7.11578947 22.3657895,7.34736842 21.8039474,7.80394737 C21.2407895,8.26447368 20.8723684,8.86578947 20.7,9.61052632 C20.6131579,9.95789474 20.5697368,10.2421053 20.5697368,10.4657895 L20.5697368,12.5710526 C20.5697368,13.4894737 20.8513158,14.2644737 21.4144737,14.8973684 C21.9776316,15.5302632 22.7092105,15.8460526 23.6092105,15.8460526 C24.6657895,15.8460526 25.4881579,15.4381579 26.0763158,14.625 C26.6657895,13.8105263 26.9605263,12.7368421 26.9605263,11.4026316 Z" id="Shape"></path>
                    <path d="M44.3407895,11.3 C44.3407895,13.4473684 43.7605263,15.1447368 42.5986842,16.3907895 C41.5605263,17.5 40.2697368,18.0539474 38.7289474,18.0539474 C37.0657895,18.0539474 35.8710526,17.4565789 35.1447368,16.2618421 L35.0921053,16.2618421 L35.0921053,22.9131579 L32.2868421,22.9131579 L32.2868421,9.29868421 C32.2868421,7.94868421 32.2513158,6.56315789 32.1828947,5.14210526 L34.65,5.14210526 L34.8065789,7.14342105 L34.8592105,7.14342105 C35.7934211,5.63552632 37.2131579,4.88289474 39.1197368,4.88289474 C40.6078947,4.88289474 41.8513158,5.47105263 42.8486842,6.64868421 C43.8421053,7.82763158 44.3407895,9.37763158 44.3407895,11.3 Z M41.4828947,11.4026316 C41.4828947,10.1736842 41.2052632,9.16052632 40.65,8.36315789 C40.0434211,7.53157895 39.2315789,7.11578947 38.2092105,7.11578947 C37.5157895,7.11578947 36.8881579,7.34736842 36.325,7.80394737 C35.7618421,8.26447368 35.3947368,8.86578947 35.2223684,9.61052632 C35.1368421,9.95789474 35.0921053,10.2421053 35.0921053,10.4657895 L35.0921053,12.5710526 C35.0921053,13.4894737 35.3736842,14.2644737 35.9342105,14.8973684 C36.4973684,15.5289474 37.2289474,15.8460526 38.1315789,15.8460526 C39.1881579,15.8460526 40.0105263,15.4381579 40.5986842,14.625 C41.1881579,13.8105263 41.4828947,12.7368421 41.4828947,11.4026316 Z" id="Shape"></path>
                    <path d="M60.5776316,12.8578947 C60.5776316,14.3473684 60.0605263,15.5592105 59.0223684,16.4947368 C57.8815789,17.5171053 56.2934211,18.0276316 54.2526316,18.0276316 C52.3684211,18.0276316 50.8578947,17.6644737 49.7144737,16.9368421 L50.3644737,14.5986842 C51.5960526,15.3434211 52.9473684,15.7171053 54.4197368,15.7171053 C55.4763158,15.7171053 56.2986842,15.4776316 56.8894737,15.0013158 C57.4776316,14.525 57.7710526,13.8855263 57.7710526,13.0881579 C57.7710526,12.3776316 57.5289474,11.7789474 57.0434211,11.2934211 C56.5605263,10.8078947 55.7539474,10.3565789 54.6276316,9.93947368 C51.5618421,8.79605263 50.0302632,7.12105263 50.0302632,4.91842105 C50.0302632,3.47894737 50.5671053,2.29868421 51.6421053,1.38026316 C52.7131579,0.460526316 54.1421053,0.00131578947 55.9289474,0.00131578947 C57.5223684,0.00131578947 58.8460526,0.278947368 59.9026316,0.832894737 L59.2013158,3.11973684 C58.2144737,2.58289474 57.0986842,2.31447368 55.85,2.31447368 C54.8631579,2.31447368 54.0921053,2.55789474 53.5394737,3.04210526 C53.0723684,3.475 52.8381579,4.00263158 52.8381579,4.62763158 C52.8381579,5.31973684 53.1052632,5.89210526 53.6421053,6.34210526 C54.1092105,6.75789474 54.9578947,7.20789474 56.1894737,7.69342105 C57.6960526,8.3 58.8026316,9.00921053 59.5144737,9.82236842 C60.2236842,10.6328947 60.5776316,11.6473684 60.5776316,12.8578947 Z" id="Shape"></path>
                    <path d="M69.8526316,7.24736842 L66.7605263,7.24736842 L66.7605263,13.3776316 C66.7605263,14.9368421 67.3052632,15.7157895 68.3973684,15.7157895 C68.8986842,15.7157895 69.3144737,15.6723684 69.6434211,15.5855263 L69.7210526,17.7157895 C69.1684211,17.9223684 68.4407895,18.0263158 67.5394737,18.0263158 C66.4315789,18.0263158 65.5657895,17.6881579 64.9407895,17.0131579 C64.3184211,16.3368421 64.0052632,15.2026316 64.0052632,13.6092105 L64.0052632,7.24473684 L62.1631579,7.24473684 L62.1631579,5.13947368 L64.0052632,5.13947368 L64.0052632,2.82763158 L66.7605263,1.99605263 L66.7605263,5.13947368 L69.8526316,5.13947368 L69.8526316,7.24736842 Z" id="Shape"></path>
                    <path d="M83.8039474,11.3513158 C83.8039474,13.2921053 83.2486842,14.8855263 82.1407895,16.1315789 C80.9789474,17.4144737 79.4368421,18.0539474 77.5144737,18.0539474 C75.6618421,18.0539474 74.1868421,17.4394737 73.0868421,16.2105263 C71.9868421,14.9815789 71.4368421,13.4302632 71.4368421,11.5605263 C71.4368421,9.60394737 72.0026316,8.00131579 73.1381579,6.75526316 C74.2710526,5.50789474 75.8,4.88421053 77.7223684,4.88421053 C79.575,4.88421053 81.0657895,5.49868421 82.1907895,6.72894737 C83.2671053,7.92236842 83.8039474,9.46315789 83.8039474,11.3513158 Z M80.8934211,11.4421053 C80.8934211,10.2776316 80.6447368,9.27894737 80.1407895,8.44605263 C79.5526316,7.43815789 78.7118421,6.93552632 77.6223684,6.93552632 C76.4947368,6.93552632 75.6381579,7.43947368 75.05,8.44605263 C74.5460526,9.28026316 74.2973684,10.2947368 74.2973684,11.4947368 C74.2973684,12.6592105 74.5460526,13.6578947 75.05,14.4894737 C75.6565789,15.4973684 76.5039474,16 77.5973684,16 C78.6684211,16 79.5092105,15.4868421 80.1157895,14.4631579 C80.6328947,13.6144737 80.8934211,12.6052632 80.8934211,11.4421053 Z" id="Shape"></path>
                    <path d="M92.9223684,7.60921053 C92.6447368,7.55789474 92.3486842,7.53157895 92.0381579,7.53157895 C91.0513158,7.53157895 90.2881579,7.90394737 89.7513158,8.65 C89.2842105,9.30789474 89.05,10.1394737 89.05,11.1434211 L89.05,17.7684211 L86.2460526,17.7684211 L86.2723684,9.11842105 C86.2723684,7.66315789 86.2368421,6.33815789 86.1671053,5.14342105 L88.6105263,5.14342105 L88.7131579,7.55921053 L88.7907895,7.55921053 C89.0868421,6.72894737 89.5539474,6.06052632 90.1934211,5.55921053 C90.8184211,5.10789474 91.4934211,4.88289474 92.2210526,4.88289474 C92.4802632,4.88289474 92.7144737,4.90131579 92.9223684,4.93421053 L92.9223684,7.60921053 Z" id="Shape"></path>
                    <path d="M105.468421,10.8578947 C105.468421,11.3605263 105.435526,11.7842105 105.365789,12.1302632 L96.95,12.1302632 C96.9828947,13.3776316 97.3894737,14.3315789 98.1710526,14.9894737 C98.8802632,15.5776316 99.7973684,15.8723684 100.923684,15.8723684 C102.169737,15.8723684 103.306579,15.6736842 104.328947,15.275 L104.768421,17.2223684 C103.573684,17.7434211 102.163158,18.0026316 100.535526,18.0026316 C98.5776316,18.0026316 97.0407895,17.4263158 95.9223684,16.275 C94.8065789,15.1236842 94.2473684,13.5776316 94.2473684,11.6381579 C94.2473684,9.73421053 94.7671053,8.14868421 95.8078947,6.88421053 C96.8973684,5.53421053 98.3697368,4.85921053 100.222368,4.85921053 C102.042105,4.85921053 103.419737,5.53421053 104.355263,6.88421053 C105.096053,7.95657895 105.468421,9.28289474 105.468421,10.8578947 Z M102.793421,10.1302632 C102.811842,9.29868421 102.628947,8.58026316 102.248684,7.97368421 C101.763158,7.19342105 101.017105,6.80394737 100.013158,6.80394737 C99.0960526,6.80394737 98.35,7.18421053 97.7802632,7.94736842 C97.3131579,8.55394737 97.0355263,9.28157895 96.95,10.1289474 L102.793421,10.1289474 L102.793421,10.1302632 Z" id="Shape"></path>
                </g>
                <g id="Group" transform="translate(60.263158, 10.578947)" fill="#FFFFFF">
                    <path d="M7.96052632,5.275 C7.96052632,6.82368421 7.49605263,7.98947368 6.56842105,8.77236842 C5.70921053,9.49473684 4.48815789,9.85657895 2.90657895,9.85657895 C2.12236842,9.85657895 1.45131579,9.82236842 0.889473684,9.75394737 L0.889473684,1.29210526 C1.62236842,1.17368421 2.41184211,1.11315789 3.26447368,1.11315789 C4.77105263,1.11315789 5.90657895,1.44078947 6.67236842,2.09605263 C7.53026316,2.83684211 7.96052632,3.89605263 7.96052632,5.275 Z M6.50657895,5.31315789 C6.50657895,4.30921053 6.24078947,3.53947368 5.70921053,3.00263158 C5.17763158,2.46710526 4.40131579,2.19868421 3.37894737,2.19868421 C2.94473684,2.19868421 2.575,2.22763158 2.26842105,2.28815789 L2.26842105,8.72105263 C2.43815789,8.74736842 2.74868421,8.75921053 3.2,8.75921053 C4.25526316,8.75921053 5.06973684,8.46578947 5.64342105,7.87894737 C6.21710526,7.29210526 6.50657895,6.43684211 6.50657895,5.31315789 Z" id="Shape"></path>
                    <path d="M15.6697368,6.62763158 C15.6697368,7.58157895 15.3973684,8.36315789 14.8526316,8.97631579 C14.2815789,9.60657895 13.525,9.92105263 12.5802632,9.92105263 C11.6697368,9.92105263 10.9447368,9.61973684 10.4039474,9.01447368 C9.86447368,8.41052632 9.59473684,7.64868421 9.59473684,6.73026316 C9.59473684,5.76973684 9.87236842,4.98157895 10.4302632,4.36973684 C10.9881579,3.75789474 11.7381579,3.45131579 12.6828947,3.45131579 C13.5934211,3.45131579 14.325,3.75263158 14.8789474,4.35657895 C15.4052632,4.94342105 15.6697368,5.70131579 15.6697368,6.62763158 Z M14.2394737,6.67236842 C14.2394737,6.1 14.1157895,5.60921053 13.8697368,5.2 C13.5802632,4.70526316 13.1684211,4.45789474 12.6328947,4.45789474 C12.0789474,4.45789474 11.6578947,4.70526316 11.3684211,5.2 C11.1210526,5.60921053 10.9986842,6.10789474 10.9986842,6.69736842 C10.9986842,7.26973684 11.1223684,7.76052632 11.3684211,8.16973684 C11.6671053,8.66447368 12.0828947,8.91184211 12.6197368,8.91184211 C13.1460526,8.91184211 13.5592105,8.66052632 13.8565789,8.15657895 C14.1118421,7.73947368 14.2394737,7.24473684 14.2394737,6.67236842 Z" id="Shape"></path>
                    <path d="M26.0065789,3.57763158 L24.0657895,9.78026316 L22.8026316,9.78026316 L21.9986842,7.08684211 C21.7947368,6.41447368 21.6289474,5.74605263 21.5,5.08289474 L21.475,5.08289474 C21.3552632,5.76447368 21.1894737,6.43157895 20.9763158,7.08684211 L20.1223684,9.78026316 L18.8447368,9.78026316 L17.0197368,3.57763158 L18.4368421,3.57763158 L19.1381579,6.52631579 C19.3078947,7.22368421 19.4473684,7.88815789 19.5592105,8.51710526 L19.5842105,8.51710526 C19.6868421,7.99868421 19.8565789,7.33815789 20.0960526,6.53947368 L20.9763158,3.57894737 L22.1,3.57894737 L22.9434211,6.47631579 C23.1473684,7.18289474 23.3131579,7.86315789 23.4407895,8.51842105 L23.4789474,8.51842105 C23.5723684,7.88026316 23.7131579,7.2 23.9,6.47631579 L24.6526316,3.57894737 L26.0065789,3.57894737 L26.0065789,3.57763158 Z" id="Shape"></path>
                    <path d="M33.1552632,9.78026316 L31.7763158,9.78026316 L31.7763158,6.22763158 C31.7763158,5.13289474 31.3605263,4.58552632 30.5263158,4.58552632 C30.1171053,4.58552632 29.7868421,4.73552632 29.5302632,5.03684211 C29.2763158,5.33815789 29.1473684,5.69342105 29.1473684,6.1 L29.1473684,9.77894737 L27.7684211,9.77894737 L27.7684211,5.35 C27.7684211,4.80526316 27.7513158,4.21447368 27.7184211,3.575 L28.9302632,3.575 L28.9947368,4.54473684 L29.0328947,4.54473684 C29.1934211,4.24342105 29.4328947,3.99473684 29.7473684,3.79605263 C30.1210526,3.56447368 30.5394737,3.44736842 30.9973684,3.44736842 C31.5763158,3.44736842 32.0578947,3.63421053 32.4407895,4.00921053 C32.9171053,4.46842105 33.1552632,5.15394737 33.1552632,6.06447368 L33.1552632,9.78026316 L33.1552632,9.78026316 Z" id="Shape"></path>
                    <polygon id="Shape" points="36.9578947 9.78026316 35.5802632 9.78026316 35.5802632 0.731578947 36.9578947 0.731578947"></polygon>
                    <path d="M45.0763158,6.62763158 C45.0763158,7.58157895 44.8039474,8.36315789 44.2592105,8.97631579 C43.6881579,9.60657895 42.9302632,9.92105263 41.9868421,9.92105263 C41.075,9.92105263 40.35,9.61973684 39.8105263,9.01447368 C39.2710526,8.41052632 39.0013158,7.64868421 39.0013158,6.73026316 C39.0013158,5.76973684 39.2789474,4.98157895 39.8368421,4.36973684 C40.3947368,3.75789474 41.1447368,3.45131579 42.0881579,3.45131579 C43,3.45131579 43.7302632,3.75263158 44.2855263,4.35657895 C44.8118421,4.94342105 45.0763158,5.70131579 45.0763158,6.62763158 Z M43.6447368,6.67236842 C43.6447368,6.1 43.5210526,5.60921053 43.275,5.2 C42.9868421,4.70526316 42.5736842,4.45789474 42.0394737,4.45789474 C41.4842105,4.45789474 41.0631579,4.70526316 40.775,5.2 C40.5276316,5.60921053 40.4052632,6.10789474 40.4052632,6.69736842 C40.4052632,7.26973684 40.5289474,7.76052632 40.775,8.16973684 C41.0736842,8.66447368 41.4894737,8.91184211 42.0263158,8.91184211 C42.5526316,8.91184211 42.9644737,8.66052632 43.2618421,8.15657895 C43.5184211,7.73947368 43.6447368,7.24473684 43.6447368,6.67236842 Z" id="Shape"></path>
                    <path d="M51.75,9.78026316 L50.5118421,9.78026316 L50.4092105,9.06578947 L50.3710526,9.06578947 C49.9473684,9.63552632 49.3434211,9.92105263 48.5592105,9.92105263 C47.9736842,9.92105263 47.5,9.73289474 47.1434211,9.35921053 C46.8197368,9.01973684 46.6578947,8.59736842 46.6578947,8.09605263 C46.6578947,7.33815789 46.9736842,6.76052632 47.6092105,6.36052632 C48.2434211,5.96052632 49.1355263,5.76447368 50.2842105,5.77368421 L50.2842105,5.65789474 C50.2842105,4.84078947 49.8552632,4.43289474 48.9960526,4.43289474 C48.3842105,4.43289474 47.8447368,4.58684211 47.3789474,4.89210526 L47.0986842,3.98684211 C47.675,3.63026316 48.3868421,3.45131579 49.2263158,3.45131579 C50.8473684,3.45131579 51.6605263,4.30657895 51.6605263,6.01710526 L51.6605263,8.30131579 C51.6605263,8.92105263 51.6907895,9.41447368 51.75,9.78026316 Z M50.3184211,7.64868421 L50.3184211,6.69210526 C48.7973684,6.66578947 48.0368421,7.08289474 48.0368421,7.94210526 C48.0368421,8.26578947 48.1236842,8.50789474 48.3013158,8.66973684 C48.4789474,8.83157895 48.7052632,8.91184211 48.975,8.91184211 C49.2776316,8.91184211 49.5605263,8.81578947 49.8184211,8.625 C50.0776316,8.43289474 50.2368421,8.18947368 50.2960526,7.89078947 C50.3105263,7.82368421 50.3184211,7.74210526 50.3184211,7.64868421 Z" id="Shape"></path>
                    <path d="M59.5855263,9.78026316 L58.3618421,9.78026316 L58.2973684,8.78421053 L58.2592105,8.78421053 C57.8684211,9.54210526 57.2026316,9.92105263 56.2671053,9.92105263 C55.5197368,9.92105263 54.8973684,9.62763158 54.4039474,9.04078947 C53.9105263,8.45394737 53.6644737,7.69210526 53.6644737,6.75657895 C53.6644737,5.75263158 53.9315789,4.93947368 54.4684211,4.31842105 C54.9881579,3.73947368 55.625,3.45 56.3828947,3.45 C57.2157895,3.45 57.7986842,3.73026316 58.1302632,4.29210526 L58.1565789,4.29210526 L58.1565789,0.731578947 L59.5368421,0.731578947 L59.5368421,8.10921053 C59.5368421,8.71315789 59.5526316,9.26973684 59.5855263,9.78026316 Z M58.1565789,7.16447368 L58.1565789,6.13026316 C58.1565789,5.95131579 58.1434211,5.80657895 58.1184211,5.69605263 C58.0407895,5.36447368 57.8736842,5.08552632 57.6197368,4.86052632 C57.3631579,4.63552632 57.0539474,4.52236842 56.6973684,4.52236842 C56.1828947,4.52236842 55.7802632,4.72631579 55.4842105,5.13552632 C55.1907895,5.54473684 55.0421053,6.06710526 55.0421053,6.70526316 C55.0421053,7.31842105 55.1828947,7.81578947 55.4657895,8.19868421 C55.7644737,8.60657895 56.1671053,8.81052632 56.6710526,8.81052632 C57.1236842,8.81052632 57.4855263,8.64078947 57.7605263,8.3 C58.0263158,7.98552632 58.1565789,7.60657895 58.1565789,7.16447368 Z" id="Shape"></path>
                    <path d="M71.3789474,6.62763158 C71.3789474,7.58157895 71.1065789,8.36315789 70.5618421,8.97631579 C69.9907895,9.60657895 69.2355263,9.92105263 68.2894737,9.92105263 C67.3802632,9.92105263 66.6552632,9.61973684 66.1131579,9.01447368 C65.5736842,8.41052632 65.3039474,7.64868421 65.3039474,6.73026316 C65.3039474,5.76973684 65.5815789,4.98157895 66.1394737,4.36973684 C66.6973684,3.75789474 67.4473684,3.45131579 68.3934211,3.45131579 C69.3026316,3.45131579 70.0355263,3.75263158 70.5881579,4.35657895 C71.1144737,4.94342105 71.3789474,5.70131579 71.3789474,6.62763158 Z M69.95,6.67236842 C69.95,6.1 69.8263158,5.60921053 69.5802632,5.2 C69.2894737,4.70526316 68.8789474,4.45789474 68.3421053,4.45789474 C67.7894737,4.45789474 67.3684211,4.70526316 67.0776316,5.2 C66.8302632,5.60921053 66.7078947,6.10789474 66.7078947,6.69736842 C66.7078947,7.26973684 66.8315789,7.76052632 67.0776316,8.16973684 C67.3763158,8.66447368 67.7921053,8.91184211 68.3289474,8.91184211 C68.8552632,8.91184211 69.2697368,8.66052632 69.5671053,8.15657895 C69.8210526,7.73947368 69.95,7.24473684 69.95,6.67236842 Z" id="Shape"></path>
                    <path d="M78.7934211,9.78026316 L77.4157895,9.78026316 L77.4157895,6.22763158 C77.4157895,5.13289474 77,4.58552632 76.1644737,4.58552632 C75.7552632,4.58552632 75.425,4.73552632 75.1697368,5.03684211 C74.9144737,5.33815789 74.7868421,5.69342105 74.7868421,6.1 L74.7868421,9.77894737 L73.4065789,9.77894737 L73.4065789,5.35 C73.4065789,4.80526316 73.3907895,4.21447368 73.3578947,3.575 L74.5684211,3.575 L74.6328947,4.54473684 L74.6710526,4.54473684 C74.8328947,4.24342105 75.0723684,3.99473684 75.3855263,3.79605263 C75.7605263,3.56447368 76.1776316,3.44736842 76.6368421,3.44736842 C77.2144737,3.44736842 77.6960526,3.63421053 78.0789474,4.00921053 C78.5565789,4.46842105 78.7934211,5.15394737 78.7934211,6.06447368 L78.7934211,9.78026316 L78.7934211,9.78026316 Z" id="Shape"></path>
                    <path d="M88.0736842,4.61052632 L86.5552632,4.61052632 L86.5552632,7.62368421 C86.5552632,8.38947368 86.825,8.77236842 87.3592105,8.77236842 C87.6065789,8.77236842 87.8118421,8.75131579 87.9736842,8.70789474 L88.0092105,9.75394737 C87.7368421,9.85657895 87.3789474,9.90789474 86.9381579,9.90789474 C86.3934211,9.90789474 85.9697368,9.74210526 85.6631579,9.41052632 C85.3552632,9.07894737 85.2026316,8.52105263 85.2026316,7.73815789 L85.2026316,4.61052632 L84.2960526,4.61052632 L84.2960526,3.57763158 L85.2026316,3.57763158 L85.2026316,2.44078947 L86.5539474,2.03289474 L86.5539474,3.57631579 L88.0723684,3.57631579 L88.0723684,4.61052632 L88.0736842,4.61052632 Z" id="Shape"></path>
                    <path d="M95.3736842,9.78026316 L93.9934211,9.78026316 L93.9934211,6.25394737 C93.9934211,5.14210526 93.5776316,4.58552632 92.7447368,4.58552632 C92.1052632,4.58552632 91.6684211,4.90789474 91.4289474,5.55263158 C91.3881579,5.68815789 91.3644737,5.85394737 91.3644737,6.04868421 L91.3644737,9.77894737 L89.9868421,9.77894737 L89.9868421,0.731578947 L91.3644737,0.731578947 L91.3644737,4.46973684 L91.3907895,4.46973684 C91.825,3.78947368 92.4473684,3.45 93.2539474,3.45 C93.825,3.45 94.2973684,3.63684211 94.6723684,4.01184211 C95.1394737,4.47894737 95.3736842,5.17368421 95.3736842,6.09210526 L95.3736842,9.78026316 L95.3736842,9.78026316 Z" id="Shape"></path>
                    <path d="M102.903947,6.38552632 C102.903947,6.63289474 102.885526,6.84078947 102.852632,7.01052632 L98.7171053,7.01052632 C98.7355263,7.62368421 98.9328947,8.09078947 99.3157895,8.41447368 C99.6657895,8.70394737 100.117105,8.84868421 100.669737,8.84868421 C101.281579,8.84868421 101.839474,8.75131579 102.342105,8.55526316 L102.557895,9.51315789 C101.969737,9.76842105 101.277632,9.89605263 100.476316,9.89605263 C99.5157895,9.89605263 98.7592105,9.61315789 98.2118421,9.04736842 C97.6618421,8.48157895 97.3894737,7.72236842 97.3894737,6.76973684 C97.3894737,5.83421053 97.6434211,5.05526316 98.1552632,4.43421053 C98.6894737,3.77105263 99.4118421,3.43947368 100.323684,3.43947368 C101.215789,3.43947368 101.893421,3.77105263 102.351316,4.43421053 C102.721053,4.96052632 102.903947,5.61184211 102.903947,6.38552632 Z M101.588158,6.02894737 C101.598684,5.61973684 101.507895,5.26710526 101.321053,4.96973684 C101.081579,4.58684211 100.717105,4.39473684 100.223684,4.39473684 C99.7736842,4.39473684 99.4065789,4.58157895 99.1263158,4.95657895 C98.8973684,5.25526316 98.7618421,5.61184211 98.7171053,6.02894737 L101.588158,6.02894737 Z" id="Shape"></path>
                </g>
            </g>
        </g>
    </g>
</svg>