<?xml version="1.0" encoding="UTF-8"?>
<svg width="16px" height="16px" viewBox="0 0 16 16" version="1.1" xmlns="http://www.w3.org/2000/svg" xmlns:xlink="http://www.w3.org/1999/xlink">
    <!-- Generator: Sketch 46.2 (44496) - http://www.bohemiancoding.com/sketch -->
    <title>planeTo</title>
    <desc>Created with Sketch.</desc>
    <defs></defs>
    <g id="Main" stroke="none" stroke-width="1" fill="none" fill-rule="evenodd">
        <g id="Order" transform="translate(-212.000000, -418.000000)" fill-rule="nonzero" fill="#C6C8CB">
            <g id="Group-2" transform="translate(-64.000000, 0.000000)">
                <g id="Group" transform="translate(77.000000, 393.000000)">
                    <g id="Input" transform="translate(150.000000, 0.000000)">
                        <path d="M63.2049664,25.0014373 C62.4477081,25.0432848 61.6829527,25.4851257 61.0320099,26.129496 C61.0254872,26.1359669 59.0341241,28.053039 58.0898653,29.0650123 L50.1031284,27.4690656 C49.9280107,27.4333492 49.7346085,27.5272776 49.6544353,27.686986 L49.0390848,28.9175955 C48.9428672,29.1104382 49.031635,29.3735301 49.224972,29.468806 L54.9169642,32.3145903 L51.9363601,35.8141359 C51.5669209,35.7022941 51.1501512,35.6012918 50.7312987,35.6154438 C50.4726919,35.6241401 50.2048614,35.6737952 49.9749304,35.8590019 C49.7449985,36.0442292 49.6095611,36.3611316 49.609566,36.6922271 C49.6095441,36.9528496 49.6925155,37.2592201 49.8916017,37.5446805 C49.8939851,37.5479067 52.451635,40.1055537 52.4555621,40.1084502 C52.7410392,40.3075218 53.0474458,40.3904648 53.308079,40.3904648 C53.6391886,40.3904648 53.9561397,40.255026 54.1413661,40.0251277 C54.3265926,39.7952088 54.3762514,39.5274077 54.3849424,39.2688156 C54.3990196,38.8499777 54.2981002,38.4332523 54.1862355,38.0638438 L57.6860415,35.0834616 L60.5320376,40.7750303 C60.6272514,40.9683795 60.8904233,41.0571373 61.0832891,40.9609036 L62.3139901,40.3455989 C62.4737113,40.2654247 62.5676466,40.0720344 62.5319268,39.8969392 L60.9358614,31.9107966 C61.9479103,30.9666074 63.8651267,28.9753931 63.8715961,28.9688709 C64.5589781,28.2745815 65.0124687,27.4479032 64.9997387,26.6422499 C64.9929945,26.2155381 64.8610867,25.7793414 64.5446357,25.4629158 C64.2281848,25.1464903 63.7855467,25.0081851 63.358804,25.0014373 C63.308447,25.0006374 63.2554504,24.9986479 63.2049664,25.0014373 Z M63.3459842,25.8218436 C63.6084862,25.825999 63.8333024,25.9131897 63.9613347,26.039764 C64.087938,26.1677679 64.1751233,26.3925818 64.1792714,26.6550687 C64.1866371,27.1211805 63.860551,27.8198016 63.2754753,28.4048416 C63.2688562,28.4110356 61.2717133,30.485115 60.2051326,31.4749558 C60.1043364,31.5695691 60.0567054,31.7174638 60.0833445,31.8531118 L61.6601802,39.7495224 L61.0768792,40.0379465 L58.1860138,34.2566459 C58.0743391,34.0382742 57.7461627,33.9713086 57.5578435,34.1284574 L53.4555067,37.6151842 C53.3301172,37.7192732 53.2770235,37.9024392 53.3273087,38.0574344 C53.4533825,38.4407282 53.5748427,38.9282957 53.564475,39.2367685 C53.5592917,39.3910049 53.5243277,39.482634 53.500376,39.5123737 C53.4764243,39.5420929 53.4631968,39.5700585 53.308079,39.5700585 C53.1887289,39.5700585 53.0968737,39.5461027 52.9427146,39.4418701 C52.9420788,39.4414393 50.5587183,37.0591136 50.5582314,37.0575642 C50.4539709,36.9034304 50.4300293,36.8115552 50.4300334,36.6922271 C50.4300252,36.5371087 50.4579838,36.5239002 50.4877225,36.4999443 C50.5174447,36.476009 50.6090725,36.4409776 50.7633482,36.4358501 C51.0718399,36.4254514 51.5594253,36.5469639 51.94277,36.6729988 C52.0977705,36.7233102 52.2809298,36.6702094 52.3850532,36.5448103 L55.8720395,32.4427788 C56.0291975,32.2544956 55.9622334,31.9263125 55.7438414,31.8146552 L49.9621106,28.9240049 L50.2505561,28.3407473 L58.1475544,29.9174657 C58.2832123,29.9441043 58.4311179,29.8964756 58.5257385,29.7956866 C59.5156509,28.7291871 61.5898887,26.7321972 61.5960812,26.7255724 C62.1811653,26.1405427 62.8798365,25.8144805 63.3459842,25.8218436 Z" id="planeTo" transform="translate(57.000000, 33.000000) scale(1, -1) translate(-57.000000, -33.000000) "></path>
                    </g>
                </g>
            </g>
        </g>
    </g>
</svg>