<?xml version="1.0" encoding="UTF-8"?>
<svg width="16px" height="16px" viewBox="0 0 16 16" version="1.1" xmlns="http://www.w3.org/2000/svg" xmlns:xlink="http://www.w3.org/1999/xlink">
    <!-- Generator: Sketch 46.2 (44496) - http://www.bohemiancoding.com/sketch -->
    <title>planeFrom</title>
    <desc>Created with Sketch.</desc>
    <defs></defs>
    <g id="Main" stroke="none" stroke-width="1" fill="none" fill-rule="evenodd">
        <g id="Order" transform="translate(-48.000000, -418.000000)" fill-rule="nonzero" fill="#C6C8CB">
            <g id="Input" transform="translate(13.000000, 393.000000)">
                <path d="M49.2049664,25.0014373 C48.4477081,25.0432848 47.6829527,25.4851257 47.0320099,26.129496 C47.0254872,26.1359669 45.0341241,28.053039 44.0898653,29.0650123 L36.1031284,27.4690656 C35.9280107,27.4333492 35.7346085,27.5272776 35.6544353,27.686986 L35.0390848,28.9175955 C34.9428672,29.1104382 35.031635,29.3735301 35.224972,29.468806 L40.9169642,32.3145903 L37.9363601,35.8141359 C37.5669209,35.7022941 37.1501512,35.6012918 36.7312987,35.6154438 C36.4726919,35.6241401 36.2048614,35.6737952 35.9749304,35.8590019 C35.7449985,36.0442292 35.6095611,36.3611316 35.609566,36.6922271 C35.6095441,36.9528496 35.6925155,37.2592201 35.8916017,37.5446805 C35.8939851,37.5479067 38.451635,40.1055537 38.4555621,40.1084502 C38.7410392,40.3075218 39.0474458,40.3904648 39.308079,40.3904648 C39.6391886,40.3904648 39.9561397,40.255026 40.1413661,40.0251277 C40.3265926,39.7952088 40.3762514,39.5274077 40.3849424,39.2688156 C40.3990196,38.8499777 40.2981002,38.4332523 40.1862355,38.0638438 L43.6860415,35.0834616 L46.5320376,40.7750303 C46.6272514,40.9683795 46.8904233,41.0571373 47.0832891,40.9609036 L48.3139901,40.3455989 C48.4737113,40.2654247 48.5676466,40.0720344 48.5319268,39.8969392 L46.9358614,31.9107966 C47.9479103,30.9666074 49.8651267,28.9753931 49.8715961,28.9688709 C50.5589781,28.2745815 51.0124687,27.4479032 50.9997387,26.6422499 C50.9929945,26.2155381 50.8610867,25.7793414 50.5446357,25.4629158 C50.2281848,25.1464903 49.7855467,25.0081851 49.358804,25.0014373 C49.308447,25.0006374 49.2554504,24.9986479 49.2049664,25.0014373 Z M49.3459842,25.8218436 C49.6084862,25.825999 49.8333024,25.9131897 49.9613347,26.039764 C50.087938,26.1677679 50.1751233,26.3925818 50.1792714,26.6550687 C50.1866371,27.1211805 49.860551,27.8198016 49.2754753,28.4048416 C49.2688562,28.4110356 47.2717133,30.485115 46.2051326,31.4749558 C46.1043364,31.5695691 46.0567054,31.7174638 46.0833445,31.8531118 L47.6601802,39.7495224 L47.0768792,40.0379465 L44.1860138,34.2566459 C44.0743391,34.0382742 43.7461627,33.9713086 43.5578435,34.1284574 L39.4555067,37.6151842 C39.3301172,37.7192732 39.2770235,37.9024392 39.3273087,38.0574344 C39.4533825,38.4407282 39.5748427,38.9282957 39.564475,39.2367685 C39.5592917,39.3910049 39.5243277,39.482634 39.500376,39.5123737 C39.4764243,39.5420929 39.4631968,39.5700585 39.308079,39.5700585 C39.1887289,39.5700585 39.0968737,39.5461027 38.9427146,39.4418701 C38.9420788,39.4414393 36.5587183,37.0591136 36.5582314,37.0575642 C36.4539709,36.9034304 36.4300293,36.8115552 36.4300334,36.6922271 C36.4300252,36.5371087 36.4579838,36.5239002 36.4877225,36.4999443 C36.5174447,36.476009 36.6090725,36.4409776 36.7633482,36.4358501 C37.0718399,36.4254514 37.5594253,36.5469639 37.94277,36.6729988 C38.0977705,36.7233102 38.2809298,36.6702094 38.3850532,36.5448103 L41.8720395,32.4427788 C42.0291975,32.2544956 41.9622334,31.9263125 41.7438414,31.8146552 L35.9621106,28.9240049 L36.2505561,28.3407473 L44.1475544,29.9174657 C44.2832123,29.9441043 44.4311179,29.8964756 44.5257385,29.7956866 C45.5156509,28.7291871 47.5898887,26.7321972 47.5960812,26.7255724 C48.1811653,26.1405427 48.8798365,25.8144805 49.3459842,25.8218436 Z" id="planeFrom"></path>
            </g>
        </g>
    </g>
</svg>