<?xml version="1.0" encoding="UTF-8"?>
<svg width="20px" height="13px" viewBox="0 0 20 13" version="1.1" xmlns="http://www.w3.org/2000/svg" xmlns:xlink="http://www.w3.org/1999/xlink">
    <!-- Generator: Sketch 46.2 (44496) - http://www.bohemiancoding.com/sketch -->
    <title>who</title>
    <desc>Created with Sketch.</desc>
    <defs></defs>
    <g id="Main" stroke="none" stroke-width="1" fill="none" fill-rule="evenodd">
        <g id="Order" transform="translate(-203.000000, -477.000000)" fill-rule="nonzero" fill="#C6C8CB">
            <g id="Group-2" transform="translate(-64.000000, 0.000000)">
                <g id="Group" transform="translate(77.000000, 393.000000)">
                    <g id="Input" transform="translate(150.000000, 69.000000)">
                        <g id="who" transform="translate(40.000000, 15.000000)">
                            <path d="M6.23093652,0 C4.35094237,0 2.81397133,1.4618689 2.81397133,3.24999952 C2.81397133,5.03813014 4.35094237,6.50000096 6.23093652,6.50000096 C8.11093066,6.50000096 9.64790231,5.03813014 9.64790231,3.24999952 C9.64790231,1.4618689 8.11093066,0 6.23093672,0 L6.23093652,0 Z M6.23093652,1.14705865 C7.4591747,1.14705865 8.44191399,2.08177764 8.44191399,3.24999952 C8.44191399,4.41822141 7.4591747,5.35294039 6.23093652,5.35294039 C5.00269853,5.35294039 4.01995904,4.41822141 4.01995904,3.24999952 C4.01995904,2.08177764 5.00269853,1.14705865 6.23093652,1.14705865 Z M6.23093652,6.88235384 C2.79933868,6.88235384 0,9.44926082 0,12.6415442 L0,13 L1.20598771,13 L1.20598771,12.6415442 C1.20598771,10.0843298 3.42677389,8.0294125 6.23093652,8.0294125 C9.03509995,8.0294125 11.2558859,10.0843298 11.2558859,12.6415442 L11.2558859,13 L12.4618736,13 L12.4618736,12.6415442 C12.4618736,9.44926082 9.66253496,6.88235384 6.23093672,6.88235384 L6.23093652,6.88235384 Z" id="Shape"></path>
                            <path d="M10.192268,3.24999952 C10.192268,5.03813014 11.7547009,6.50000096 13.6658395,6.50000096 C15.5769782,6.50000096 17.1394117,5.03813014 17.1394117,3.24999952 C17.1394117,1.4618689 15.5769782,0 13.6658397,0 C11.7547009,0 10.192268,1.4618689 10.192268,3.24999952 Z M13.6658395,1.14705865 C14.914425,1.14705865 15.9134446,2.08177764 15.9134446,3.24999952 C15.9134446,4.41822141 14.914425,5.35294039 13.6658395,5.35294039 C12.4172542,5.35294039 11.4182344,4.41822141 11.4182344,3.24999952 C11.4182344,2.08177764 12.4172542,1.14705865 13.6658395,1.14705865 Z M9.40764757,8.37702592 C10.5338674,7.4474212 12.0291093,6.88235384 13.6658397,6.88235384 C17.1542867,6.88235384 20,9.44926082 20,12.6415442 L20,13 L18.7740336,13 L18.7740336,12.6415442 C18.7740336,10.0843298 16.5164575,8.0294125 13.6658395,8.0294125 C12.3625802,8.0294125 11.1832771,8.45892745 10.2869932,9.16958903 C10.0187417,8.88018387 9.72439945,8.61478365 9.40764757,8.37702592 Z" id="Shape"></path>
                        </g>
                    </g>
                </g>
            </g>
        </g>
    </g>
</svg>